PathFileType	4	(X/Y/Z)	C:\Users\italobelli\Desktop\GitHub\PTbot_officialCBL\Personal_Results\ABD23_noisy1.trc
DataRate	CameraRate	NumFrames	NumMarkers	Units	OrigDataRate	OrigDataStartFrame	OrigNumFrames
105.444444	105.444444	34	9	m	105.444444	357	950
Frame#	Time		gu		centelbow		EpL		centpxt8		centijc7		ij		ts		aa		ai
			X1	Y1	Z1	X2	Y2	Z2	X3	Y3	Z3	X4	Y4	Z4	X5	Y5	Z5	X6	Y6	Z6	X7	Y7	Z7	X8	Y8	Z8	X9	Y9	Z9

357	3.3762	-0.098736	0.063855	0.10159	-0.0070827	0.27073	0.23019	-0.02704	0.2864	0.21037	-0.046816	-0.15316	-0.008669	-0.046816	0.031938	-0.008669	0	0	0	-0.1448	-0.015508	0.049214	-0.13932	0.088498	0.10729	-0.13779	-0.066609	0.15051
358	3.3857	-0.098782	0.063841	0.10145	-0.0061208	0.27113	0.22918	-0.026135	0.28677	0.2094	-0.046816	-0.15316	-0.008669	-0.046816	0.031938	-0.008669	0	0	0	-0.14504	-0.015546	0.04935	-0.13934	0.088567	0.10722	-0.13776	-0.066452	0.15071
359	3.3952	-0.098829	0.063829	0.10131	-0.0052083	0.27152	0.22819	-0.025281	0.28712	0.20846	-0.046816	-0.15316	-0.008669	-0.046816	0.031938	-0.008669	0	0	0	-0.14526	-0.015584	0.049481	-0.13937	0.088634	0.10716	-0.13773	-0.066299	0.15091
360	3.4046	-0.098875	0.06382	0.10117	-0.0043478	0.27189	0.22723	-0.02448	0.28746	0.20753	-0.046816	-0.15316	-0.008669	-0.046816	0.031938	-0.008669	0	0	0	-0.14548	-0.015621	0.049607	-0.13939	0.088697	0.10709	-0.13769	-0.066149	0.15111
361	3.4141	-0.098922	0.063812	0.10103	-0.0035418	0.27224	0.2263	-0.023733	0.28778	0.20663	-0.046816	-0.15316	-0.008669	-0.046816	0.031938	-0.008669	0	0	0	-0.14569	-0.015658	0.049729	-0.13941	0.088758	0.10702	-0.13766	-0.066002	0.15129
362	3.4236	-0.098969	0.063807	0.1009	-0.0027926	0.27257	0.22539	-0.023044	0.28809	0.20576	-0.046816	-0.15316	-0.008669	-0.046816	0.031938	-0.008669	0	0	0	-0.14588	-0.015695	0.049846	-0.13944	0.088817	0.10695	-0.13762	-0.06586	0.15147
363	3.4331	-0.099016	0.063804	0.10076	-0.0021027	0.27288	0.2245	-0.022415	0.28837	0.20491	-0.046816	-0.15316	-0.008669	-0.046816	0.031938	-0.008669	0	0	0	-0.14607	-0.015731	0.049957	-0.13946	0.088872	0.10688	-0.13759	-0.06572	0.15163
364	3.4426	-0.099064	0.063804	0.10063	-0.0014747	0.27318	0.22365	-0.021848	0.28864	0.20409	-0.046816	-0.15316	-0.008669	-0.046816	0.031938	-0.008669	0	0	0	-0.14624	-0.015767	0.050064	-0.13948	0.088925	0.10681	-0.13755	-0.065585	0.1518
365	3.4521	-0.099112	0.063807	0.1005	-0.00091093	0.27346	0.22282	-0.021347	0.28889	0.2033	-0.046816	-0.15316	-0.008669	-0.046816	0.031938	-0.008669	0	0	0	-0.1464	-0.015803	0.050165	-0.13951	0.088975	0.10674	-0.13752	-0.065453	0.15195
366	3.4615	-0.09916	0.063812	0.10038	-0.0004139	0.27372	0.22202	-0.020913	0.28912	0.20253	-0.046816	-0.15316	-0.008669	-0.046816	0.031938	-0.008669	0	0	0	-0.14655	-0.015839	0.05026	-0.13953	0.089022	0.10666	-0.13748	-0.065325	0.15209
367	3.471	-0.099209	0.06382	0.10025	1.3952e-05	0.27395	0.22125	-0.020549	0.28933	0.2018	-0.046816	-0.15316	-0.008669	-0.046816	0.031938	-0.008669	0	0	0	-0.14669	-0.015875	0.05035	-0.13956	0.089066	0.10659	-0.13744	-0.065201	0.15223
368	3.4805	-0.099257	0.063832	0.10013	0.00037015	0.27417	0.2205	-0.020257	0.28952	0.20109	-0.046816	-0.15316	-0.008669	-0.046816	0.031938	-0.008669	0	0	0	-0.14681	-0.01591	0.050434	-0.13959	0.089107	0.10652	-0.13741	-0.065081	0.15236
369	3.49	-0.099307	0.063846	0.10001	0.00065223	0.27437	0.21979	-0.020041	0.28969	0.20041	-0.046816	-0.15316	-0.008669	-0.046816	0.031938	-0.008669	0	0	0	-0.14691	-0.015946	0.050512	-0.13961	0.089144	0.10644	-0.13737	-0.064965	0.15247
370	3.4995	-0.099356	0.063864	0.099895	0.00085774	0.27455	0.21912	-0.019901	0.28984	0.19977	-0.046816	-0.15316	-0.008669	-0.046816	0.031938	-0.008669	0	0	0	-0.14701	-0.015981	0.050584	-0.13964	0.089179	0.10636	-0.13733	-0.064854	0.15258
371	3.509	-0.099407	0.063884	0.09978	0.0010126	0.27471	0.21846	-0.019812	0.28998	0.19914	-0.046816	-0.15316	-0.008669	-0.046816	0.031938	-0.008669	0	0	0	-0.14709	-0.016017	0.05065	-0.13967	0.089211	0.10629	-0.13729	-0.064746	0.15269
372	3.5184	-0.099459	0.063904	0.099665	0.0011513	0.27487	0.21783	-0.019736	0.29011	0.19853	-0.046816	-0.15316	-0.008669	-0.046816	0.031938	-0.008669	0	0	0	-0.14717	-0.016052	0.050711	-0.13969	0.089242	0.10621	-0.13725	-0.064642	0.15278
373	3.5279	-0.099512	0.063925	0.09955	0.0012742	0.27502	0.2172	-0.019674	0.29023	0.19794	-0.046816	-0.15316	-0.008669	-0.046816	0.031938	-0.008669	0	0	0	-0.14724	-0.016088	0.050766	-0.13972	0.08927	0.10613	-0.13721	-0.06454	0.15287
374	3.5374	-0.099567	0.063946	0.099435	0.0013816	0.27516	0.2166	-0.019625	0.29034	0.19736	-0.046816	-0.15316	-0.008669	-0.046816	0.031938	-0.008669	0	0	0	-0.14731	-0.016123	0.050817	-0.13975	0.089296	0.10604	-0.13717	-0.064441	0.15296
375	3.5469	-0.099624	0.063967	0.099321	0.001474	0.27529	0.21601	-0.019588	0.29045	0.1968	-0.046816	-0.15316	-0.008669	-0.046816	0.031938	-0.008669	0	0	0	-0.14738	-0.016159	0.050862	-0.13978	0.089321	0.10596	-0.13712	-0.064345	0.15304
376	3.5564	-0.099681	0.063989	0.099208	0.0015515	0.27541	0.21544	-0.019563	0.29055	0.19626	-0.046816	-0.15316	-0.008669	-0.046816	0.031938	-0.008669	0	0	0	-0.14744	-0.016194	0.050902	-0.13981	0.089344	0.10588	-0.13707	-0.064253	0.15311
377	3.5659	-0.09974	0.064011	0.099095	0.0016146	0.27552	0.21489	-0.019551	0.29064	0.19573	-0.046816	-0.15316	-0.008669	-0.046816	0.031938	-0.008669	0	0	0	-0.14751	-0.016229	0.050937	-0.13984	0.089365	0.10579	-0.13702	-0.064163	0.15318
378	3.5753	-0.099799	0.064034	0.098983	0.0016635	0.27563	0.21435	-0.01955	0.29072	0.19522	-0.046816	-0.15316	-0.008669	-0.046816	0.031938	-0.008669	0	0	0	-0.14756	-0.016264	0.050967	-0.13987	0.089385	0.1057	-0.13697	-0.064077	0.15324
379	3.5848	-0.09986	0.064057	0.098872	0.0016986	0.27573	0.21383	-0.019561	0.29079	0.19473	-0.046816	-0.15316	-0.008669	-0.046816	0.031938	-0.008669	0	0	0	-0.14762	-0.016299	0.050992	-0.13991	0.089403	0.10561	-0.13692	-0.063994	0.1533
380	3.5943	-0.099922	0.064081	0.098761	0.0017201	0.27582	0.21333	-0.019582	0.29086	0.19425	-0.046816	-0.15316	-0.008669	-0.046816	0.031938	-0.008669	0	0	0	-0.14767	-0.016334	0.051012	-0.13994	0.089419	0.10553	-0.13687	-0.063914	0.15335
381	3.6038	-0.099984	0.064104	0.098651	0.0017285	0.2759	0.21285	-0.019615	0.29092	0.19379	-0.046816	-0.15316	-0.008669	-0.046816	0.031938	-0.008669	0	0	0	-0.14772	-0.016369	0.051028	-0.13997	0.089433	0.10544	-0.13681	-0.063838	0.15339
382	3.6133	-0.10005	0.064129	0.098542	0.001724	0.27597	0.21239	-0.019658	0.29097	0.19335	-0.046816	-0.15316	-0.008669	-0.046816	0.031938	-0.008669	0	0	0	-0.14776	-0.016403	0.051039	-0.14	0.089446	0.10535	-0.13676	-0.063765	0.15343
383	3.6228	-0.10011	0.064153	0.098434	0.001707	0.27603	0.21195	-0.019711	0.29102	0.19293	-0.046816	-0.15316	-0.008669	-0.046816	0.031938	-0.008669	0	0	0	-0.1478	-0.016437	0.051046	-0.14004	0.089457	0.10526	-0.1367	-0.063696	0.15347
384	3.6322	-0.10017	0.064178	0.098327	0.0016777	0.27609	0.21152	-0.019774	0.29105	0.19252	-0.046816	-0.15316	-0.008669	-0.046816	0.031938	-0.008669	0	0	0	-0.14784	-0.016471	0.051048	-0.14007	0.089466	0.10517	-0.13664	-0.06363	0.1535
385	3.6417	-0.10024	0.064203	0.098222	0.0016366	0.27614	0.21112	-0.019847	0.29108	0.19213	-0.046816	-0.15316	-0.008669	-0.046816	0.031938	-0.008669	0	0	0	-0.14788	-0.016505	0.051045	-0.1401	0.089474	0.10507	-0.13658	-0.063568	0.15352
386	3.6512	-0.1003	0.064228	0.098117	0.0015839	0.27618	0.21073	-0.019929	0.29111	0.19177	-0.046816	-0.15316	-0.008669	-0.046816	0.031938	-0.008669	0	0	0	-0.14791	-0.016538	0.051039	-0.14014	0.089481	0.10498	-0.13652	-0.063509	0.15354
387	3.6607	-0.10037	0.064254	0.098014	0.0015199	0.27621	0.21037	-0.02002	0.29112	0.19142	-0.046816	-0.15316	-0.008669	-0.046816	0.031938	-0.008669	0	0	0	-0.14794	-0.016571	0.051028	-0.14017	0.089486	0.10489	-0.13646	-0.063454	0.15355
388	3.6702	-0.10043	0.06428	0.097912	0.001445	0.27623	0.21002	-0.02012	0.29113	0.19109	-0.046816	-0.15316	-0.008669	-0.046816	0.031938	-0.008669	0	0	0	-0.14796	-0.016603	0.051013	-0.1402	0.089489	0.1048	-0.1364	-0.063403	0.15356
389	3.6797	-0.1005	0.064306	0.097811	0.0013594	0.27625	0.2097	-0.020228	0.29113	0.19078	-0.046816	-0.15316	-0.008669	-0.046816	0.031938	-0.008669	0	0	0	-0.14798	-0.016636	0.050994	-0.14024	0.089491	0.10471	-0.13634	-0.063355	0.15357
390	3.6891	-0.10057	0.064332	0.097712	0.0012636	0.27625	0.2094	-0.020344	0.29112	0.19049	-0.046816	-0.15316	-0.008669	-0.046816	0.031938	-0.008669	0	0	0	-0.148	-0.016667	0.050971	-0.14027	0.089492	0.10462	-0.13628	-0.063312	0.15357
